{
  "accessors": [
    {
      "bufferView": 2,
      "componentType": 5126,
      "count": 24,
      "max": [
        149.3709259033203,
        149.37100219726563,
        0.0
      ],
      "min": [
        -149.37095642089844,
        -149.3709259033203,
        -12.844650268554688
      ],
      "type": "VEC3"
    },
    {
      "bufferView": 2,
      "byteOffset": 288,
      "componentType": 5126,
      "count": 24,
      "max": [
        1.0,
        1.0,
        1.0
      ],
      "min": [
        -1.0,
        -1.0,
        -1.0
      ],
      "type": "VEC3"
    },
    {
      "bufferView": 1,
      "componentType": 5126,
      "count": 24,
      "max": [
        0.9195799827575684,
        0.9753599762916565
      ],
      "min": [
        0.00887999963015318,
        0.018130000680685043
      ],
      "type": "VEC2"
    },
    {
      "bufferView": 0,
      "componentType": 5125,
      "count": 36,
      "type": "SCALAR"
    },
    {
      "bufferView": 2,
      "byteOffset": 576,
      "componentType": 5126,
      "count": 8812,
      "max": [
        0.7916600108146667,
        3.41828989982605,
        0.7912999987602234
      ],
      "min": [
        -0.7917900085449219,
        -0.22803999483585358,
        -0.7912999987602234
      ],
      "type": "VEC3"
    },
    {
      "bufferView": 2,
      "byteOffset": 106320,
      "componentType": 5126,
      "count": 8812,
      "max": [
        0.9999977946281433,
        0.9999979138374329,
        1.0
      ],
      "min": [
        -0.9999977946281433,
        -0.9999977946281433,
        -1.0
      ],
      "type": "VEC3"
    },
    {
      "bufferView": 3,
      "componentType": 5126,
      "count": 8812,
      "max": [
        0.9999979138374329,
        0.9999979138374329,
        1.0,
        1.0
      ],
      "min": [
        -0.9999980330467224,
        -0.9999979734420776,
        -1.0,
        -1.0
      ],
      "type": "VEC4"
    },
    {
      "bufferView": 1,
      "byteOffset": 192,
      "componentType": 5126,
      "count": 8812,
      "max": [
        0.6454399824142456,
        0.5775799751281738
      ],
      "min": [
        0.0010400000028312206,
        0.0028899998869746923
      ],
      "type": "VEC2"
    },
    {
      "bufferView": 1,
      "byteOffset": 70688,
      "componentType": 5126,
      "count": 8812,
      "max": [
        0.6454399824142456,
        0.5775799751281738
      ],
      "min": [
        0.0010400000028312206,
        0.0028899998869746923
      ],
      "type": "VEC2"
    },
    {
      "bufferView": 1,
      "byteOffset": 141184,
      "componentType": 5126,
      "count": 8812,
      "max": [
        0.6454399824142456,
        0.5775799751281738
      ],
      "min": [
        0.0010400000028312206,
        0.0028899998869746923
      ],
      "type": "VEC2"
    },
    {
      "bufferView": 1,
      "byteOffset": 211680,
      "componentType": 5126,
      "count": 8812,
      "max": [
        0.6454399824142456,
        0.5775799751281738
      ],
      "min": [
        0.0010400000028312206,
        0.0028899998869746923
      ],
      "type": "VEC2"
    },
    {
      "bufferView": 0,
      "byteOffset": 144,
      "componentType": 5125,
      "count": 44544,
      "type": "SCALAR"
    },
    {
      "bufferView": 2,
      "byteOffset": 212064,
      "componentType": 5126,
      "count": 180,
      "max": [
        0.02135000005364418,
        0.7511000037193298,
        -0.0012199999764561653
      ],
      "min": [
        -2.9934499263763428,
        -0.7511000037193298,
        -0.7780200242996216
      ],
      "type": "VEC3"
    },
    {
      "bufferView": 2,
      "byteOffset": 214224,
      "componentType": 5126,
      "count": 180,
      "max": [
        0.9996525049209595,
        0.9999999403953552,
        0.7199434041976929
      ],
      "min": [
        -1.0,
        -0.9999999403953552,
        -6.0000929806847125e-05
      ],
      "type": "VEC3"
    },
    {
      "bufferView": 1,
      "byteOffset": 282176,
      "componentType": 5126,
      "count": 180,
      "max": [
        1.0,
        0.3403399884700775
      ],
      "min": [
        0.0,
        0.3100999891757965
      ],
      "type": "VEC2"
    },
    {
      "bufferView": 1,
      "byteOffset": 283616,
      "componentType": 5126,
      "count": 180,
      "max": [
        1.0,
        0.3403399884700775
      ],
      "min": [
        0.0,
        0.3100999891757965
      ],
      "type": "VEC2"
    },
    {
      "bufferView": 1,
      "byteOffset": 285056,
      "componentType": 5126,
      "count": 180,
      "max": [
        1.0,
        0.3403399884700775
      ],
      "min": [
        0.0,
        0.3100999891757965
      ],
      "type": "VEC2"
    },
    {
      "bufferView": 1,
      "byteOffset": 286496,
      "componentType": 5126,
      "count": 180,
      "max": [
        1.0,
        0.3403399884700775
      ],
      "min": [
        0.0,
        0.3100999891757965
      ],
      "type": "VEC2"
    },
    {
      "bufferView": 1,
      "byteOffset": 287936,
      "componentType": 5126,
      "count": 180,
      "max": [
        1.0,
        0.3403399884700775
      ],
      "min": [
        0.0,
        0.3100999891757965
      ],
      "type": "VEC2"
    },
    {
      "bufferView": 0,
      "byteOffset": 178320,
      "componentType": 5125,
      "count": 720,
      "type": "SCALAR"
    },
    {
      "bufferView": 2,
      "byteOffset": 216384,
      "componentType": 5126,
      "count": 574,
      "max": [
        0.02135000005364418,
        0.7511000037193298,
        -0.0012199999764561653
      ],
      "min": [
        -2.9947099685668945,
        -0.7511000037193298,
        -0.7780200242996216
      ],
      "type": "VEC3"
    },
    {
      "bufferView": 2,
      "byteOffset": 223272,
      "componentType": 5126,
      "count": 574,
      "max": [
        0.714361310005188,
        0.938029944896698,
        0.9998198747634888
      ],
      "min": [
        -0.4692288041114807,
        -0.938029944896698,
        -0.9998535513877869
      ],
      "type": "VEC3"
    },
    {
      "bufferView": 3,
      "byteOffset": 140992,
      "componentType": 5126,
      "count": 574,
      "max": [
        -0.3251853287220001,
        0.8899443745613098,
        0.8054888248443604,
        1.0
      ],
      "min": [
        -0.9998534917831421,
        -0.8899443745613098,
        -0.405476838350296,
        -1.0
      ],
      "type": "VEC4"
    },
    {
      "bufferView": 1,
      "byteOffset": 289376,
      "componentType": 5126,
      "count": 574,
      "max": [
        0.7299699783325195,
        0.28233999013900757
      ],
      "min": [
        0.607420027256012,
        0.17919999361038208
      ],
      "type": "VEC2"
    },
    {
      "bufferView": 0,
      "byteOffset": 181200,
      "componentType": 5125,
      "count": 3072,
      "type": "SCALAR"
    },
    {
      "bufferView": 2,
      "byteOffset": 230160,
      "componentType": 5126,
      "count": 57710,
      "max": [
        3.563430070877075,
        1.3390899896621704,
        2.191349983215332
      ],
      "min": [
        -3.3945999145507813,
        -1.3390899896621704,
        0.08848000317811966
      ],
      "type": "VEC3"
    },
    {
      "bufferView": 2,
      "byteOffset": 922680,
      "componentType": 5126,
      "count": 57710,
      "max": [
        1.0,
        1.0,
        1.0
      ],
      "min": [
        -1.0,
        -1.0,
        -1.0
      ],
      "type": "VEC3"
    },
    {
      "bufferView": 3,
      "byteOffset": 150176,
      "componentType": 5126,
      "count": 57710,
      "max": [
        1.0,
        1.0,
        1.0,
        1.0
      ],
      "min": [
        -1.0,
        -1.0,
        -1.0,
        -1.0
      ],
      "type": "VEC4"
    },
    {
      "bufferView": 1,
      "byteOffset": 293968,
      "componentType": 5126,
      "count": 57710,
      "max": [
        0.9987800121307373,
        0.9996500015258789
      ],
      "min": [
        -0.00014000000373926014,
        0.0027699999045580626
      ],
      "type": "VEC2"
    },
    {
      "bufferView": 1,
      "byteOffset": 755648,
      "componentType": 5126,
      "count": 57710,
      "max": [
        0.9987800121307373,
        0.9996500015258789
      ],
      "min": [
        -0.00014000000373926014,
        0.0027699999045580626
      ],
      "type": "VEC2"
    },
    {
      "bufferView": 1,
      "byteOffset": 1217328,
      "componentType": 5126,
      "count": 57710,
      "max": [
        0.9987800121307373,
        0.9996500015258789
      ],
      "min": [
        -0.00014000000373926014,
        0.0027699999045580626
      ],
      "type": "VEC2"
    },
    {
      "bufferView": 1,
      "byteOffset": 1679008,
      "componentType": 5126,
      "count": 57710,
      "max": [
        0.9987800121307373,
        0.9996500015258789
      ],
      "min": [
        -0.00014000000373926014,
        0.0027699999045580626
      ],
      "type": "VEC2"
    },
    {
      "bufferView": 0,
      "byteOffset": 193488,
      "componentType": 5125,
      "count": 273168,
      "type": "SCALAR"
    },
    {
      "bufferView": 2,
      "byteOffset": 1615200,
      "componentType": 5126,
      "count": 14714,
      "max": [
        -1.7962299585342407,
        1.6126999855041504,
        1.351699948310852
      ],
      "min": [
        -3.209789991378784,
        -1.6126999855041504,
        -0.0030400000978261232
      ],
      "type": "VEC3"
    },
    {
      "bufferView": 2,
      "byteOffset": 1791768,
      "componentType": 5126,
      "count": 14714,
      "max": [
        0.9999977946281433,
        0.9999998211860657,
        1.0
      ],
      "min": [
        -0.9999979138374329,
        -0.9999998211860657,
        -1.0
      ],
      "type": "VEC3"
    },
    {
      "bufferView": 3,
      "byteOffset": 1073536,
      "componentType": 5126,
      "count": 14714,
      "max": [
        0.9999979734420776,
        1.0,
        1.0,
        1.0
      ],
      "min": [
        -0.9999986290931702,
        -1.0,
        -1.0,
        -1.0
      ],
      "type": "VEC4"
    },
    {
      "bufferView": 1,
      "byteOffset": 2140688,
      "componentType": 5126,
      "count": 14714,
      "max": [
        0.9600200057029724,
        0.9890199899673462
      ],
      "min": [
        0.0005600000149570405,
        0.0028899998869746923
      ],
      "type": "VEC2"
    },
    {
      "bufferView": 1,
      "byteOffset": 2258400,
      "componentType": 5126,
      "count": 14714,
      "max": [
        0.9600200057029724,
        0.9890199899673462
      ],
      "min": [
        0.0005600000149570405,
        0.0028899998869746923
      ],
      "type": "VEC2"
    },
    {
      "bufferView": 1,
      "byteOffset": 2376112,
      "componentType": 5126,
      "count": 14714,
      "max": [
        0.9600200057029724,
        0.9890199899673462
      ],
      "min": [
        0.0005600000149570405,
        0.0028899998869746923
      ],
      "type": "VEC2"
    },
    {
      "bufferView": 1,
      "byteOffset": 2493824,
      "componentType": 5126,
      "count": 14714,
      "max": [
        0.9600200057029724,
        0.9890199899673462
      ],
      "min": [
        0.0005600000149570405,
        0.0028899998869746923
      ],
      "type": "VEC2"
    },
    {
      "bufferView": 0,
      "byteOffset": 1286160,
      "componentType": 5125,
      "count": 70368,
      "type": "SCALAR"
    }
  ],
  "asset": {
    "extras": {
      "author": "3DHaupt (https://sketchfab.com/dennish2010)",
      "license": "CC-BY-4.0 (http://creativecommons.org/licenses/by/4.0/)",
      "source": "https://sketchfab.com/3d-models/future-car-hliAt7xc6YU2XjXh5G4lzmQwFmR",
      "title": "Future Car"
    },
    "generator": "Sketchfab-12.64.0",
    "version": "2.0"
  },
  "bufferViews": [
    {
      "buffer": 0,
      "byteLength": 1567632,
      "name": "floatBufferViews",
      "target": 34963
    },
    {
      "buffer": 0,
      "byteLength": 2611536,
      "byteOffset": 1567632,
      "byteStride": 8,
      "name": "floatBufferViews",
      "target": 34962
    },
    {
      "buffer": 0,
      "byteLength": 1968336,
      "byteOffset": 4179168,
      "byteStride": 12,
      "name": "floatBufferViews",
      "target": 34962
    },
    {
      "buffer": 0,
      "byteLength": 1308960,
      "byteOffset": 6147504,
      "byteStride": 16,
      "name": "floatBufferViews",
      "target": 34962
    }
  ],
  "buffers": [
    {
      "byteLength": 7456464,
      "uri": "scene.bin"
    }
  ],
  "extensionsUsed": [
    "KHR_materials_clearcoat",
    "KHR_materials_transmission"
  ],
  "images": [
    {
      "uri": "textures/s_car_baseColor.jpeg"
    },
    {
      "uri": "textures/s_car_metallicRoughness.png"
    },
    {
      "uri": "textures/s_car_normal.jpeg"
    },
    {
      "uri": "textures/s_car_clearcoat.png"
    },
    {
      "uri": "textures/glass_normal.jpeg"
    },
    {
      "uri": "textures/Material_baseColor.jpeg"
    }
  ],
  "materials": [
    {
      "doubleSided": true,
      "extensions": {
        "KHR_materials_clearcoat": {
          "clearcoatFactor": 0.4477118677911376,
          "clearcoatNormalTexture": {
            "index": 2
          },
          "clearcoatRoughnessFactor": 0.7743101581747022,
          "clearcoatRoughnessTexture": {
            "index": 1
          },
          "clearcoatTexture": {
            "index": 3
          }
        }
      },
      "name": "s_car",
      "normalTexture": {
        "index": 2
      },
      "occlusionTexture": {
        "index": 1
      },
      "pbrMetallicRoughness": {
        "baseColorTexture": {
          "index": 0
        },
        "metallicFactor": 0.91,
        "metallicRoughnessTexture": {
          "index": 1
        }
      }
    },
    {
      "doubleSided": true,
      "name": "Car_lack",
      "pbrMetallicRoughness": {
        "baseColorFactor": [
          0.8000000119,
          0.8000000119,
          0.8000000119,
          1.0
        ],
        "metallicFactor": 0.0,
        "roughnessFactor": 0.2
      }
    },
    {
      "alphaMode": "BLEND",
      "extensions": {
        "KHR_materials_clearcoat": {
          "clearcoatFactor": 0.7366257400535217,
          "clearcoatNormalTexture": {
            "index": 4
          },
          "clearcoatRoughnessFactor": 0.02062179575109167
        },
        "KHR_materials_transmission": {
          "transmissionFactor": 0.9839544829
        }
      },
      "name": "glass",
      "normalTexture": {
        "index": 4
      },
      "pbrMetallicRoughness": {
        "baseColorFactor": [
          0.9187670943058942,
          0.9187670943058942,
          0.9187670943058942,
          0.25
        ],
        "roughnessFactor": 0.16288247828999702
      }
    },
    {
      "doubleSided": true,
      "extensions": {
        "KHR_materials_clearcoat": {
          "clearcoatFactor": 0.7177835309929314,
          "clearcoatRoughnessFactor": 0.0
        }
      },
      "name": "Material",
      "pbrMetallicRoughness": {
        "baseColorFactor": [
          0.3535008224881863,
          0.3535008224881863,
          0.3535008224881863,
          1.0
        ],
        "baseColorTexture": {
          "index": 5
        },
        "roughnessFactor": 0.8936441488917738
      }
    }
  ],
  "meshes": [
    {
      "name": "Plane.004_0",
      "primitives": [
        {
          "attributes": {
            "NORMAL": 1,
            "POSITION": 0,
            "TEXCOORD_0": 2
          },
          "indices": 3,
          "material": 3,
          "mode": 4
        }
      ]
    },
    {
      "name": "Cube.044_0",
      "primitives": [
        {
          "attributes": {
            "NORMAL": 5,
            "POSITION": 4,
            "TANGENT": 6,
            "TEXCOORD_0": 7,
            "TEXCOORD_1": 8,
            "TEXCOORD_2": 9,
            "TEXCOORD_3": 10
          },
          "indices": 11,
          "material": 0,
          "mode": 4
        }
      ]
    },
    {
      "name": "Cube.045_0",
      "primitives": [
        {
          "attributes": {
            "NORMAL": 13,
            "POSITION": 12,
            "TEXCOORD_0": 14,
            "TEXCOORD_1": 15,
            "TEXCOORD_2": 16,
            "TEXCOORD_3": 17,
            "TEXCOORD_4": 18
          },
          "indices": 19,
          "material": 1,
          "mode": 4
        }
      ]
    },
    {
      "name": "Cube.045_1",
      "primitives": [
        {
          "attributes": {
            "NORMAL": 21,
            "POSITION": 20,
            "TANGENT": 22,
            "TEXCOORD_0": 23
          },
          "indices": 24,
          "material": 2,
          "mode": 4
        }
      ]
    },
    {
      "name": "Speed_car.007_0",
      "primitives": [
        {
          "attributes": {
            "NORMAL": 26,
            "POSITION": 25,
            "TANGENT": 27,
            "TEXCOORD_0": 28,
            "TEXCOORD_1": 29,
            "TEXCOORD_2": 30,
            "TEXCOORD_3": 31
          },
          "indices": 32,
          "material": 0,
          "mode": 4
        }
      ]
    },
    {
      "name": "Speed_car.000_0",
      "primitives": [
        {
          "attributes": {
            "NORMAL": 34,
            "POSITION": 33,
            "TANGENT": 35,
            "TEXCOORD_0": 36,
            "TEXCOORD_1": 37,
            "TEXCOORD_2": 38,
            "TEXCOORD_3": 39
          },
          "indices": 40,
          "material": 0,
          "mode": 4
        }
      ]
    }
  ],
  "nodes": [
    {
      "children": [
        1
      ],
      "matrix": [
        0.9199673533439636,
        0.0,
        0.0,
        0.0,
        0.0,
        2.0427378751718708e-16,
        -0.9199673533439636,
        0.0,
        0.0,
        0.9199673533439636,
        2.0427378751718708e-16,
        0.0,
        0.0,
        0.0,
        0.0,
        1.0
      ],
      "name": "Sketchfab_model"
    },
    {
      "children": [
        2,
        4,
        6,
        9,
        11
      ],
      "name": "Root"
    },
    {
      "children": [
        3
      ],
      "matrix": [
        0.02474,
        0.0,
        0.0,
        0.0,
        0.0,
        0.02474,
        0.0,
        0.0,
        0.0,
        0.0,
        0.02474,
        0.0,
        0.07409000000000002,
        0.007410000000000002,
        -0.006470000000000002,
        1.0
      ],
      "name": "Plane.004"
    },
    {
      "mesh": 0,
      "name": "Plane.004_0"
    },
    {
      "children": [
        5
      ],
      "matrix": [
        1.0,
        0.0,
        0.0,
        0.0,
        0.0,
        1.0,
        0.0,
        0.0,
        0.0,
        0.0,
        1.0,
        0.0,
        2.61778,
        -1.59513,
        0.78,
        1.0
      ],
      "name": "Cube.044"
    },
    {
      "mesh": 1,
      "name": "Cube.044_0"
    },
    {
      "children": [
        7,
        8
      ],
      "matrix": [
        1.0,
        0.0,
        0.0,
        0.0,
        0.0,
        1.0,
        0.0,
        0.0,
        0.0,
        0.0,
        1.0,
        0.0,
        0.3870700000000001,
        0.007410000000000002,
        1.9252099999999999,
        1.0
      ],
      "name": "Cube.045"
    },
    {
      "mesh": 2,
      "name": "Cube.045_0"
    },
    {
      "mesh": 3,
      "name": "Cube.045_1"
    },
    {
      "children": [
        10
      ],
      "name": "Speed_car.007"
    },
    {
      "mesh": 4,
      "name": "Speed_car.007_0"
    },
    {
      "children": [
        12
      ],
      "name": "Speed_car.000"
    },
    {
      "mesh": 5,
      "name": "Speed_car.000_0"
    }
  ],
  "samplers": [
    {
      "magFilter": 9729,
      "minFilter": 9987,
      "wrapS": 10497,
      "wrapT": 10497
    }
  ],
  "scene": 0,
  "scenes": [
    {
      "name": "Sketchfab_Scene",
      "nodes": [
        0
      ]
    }
  ],
  "textures": [
    {
      "sampler": 0,
      "source": 0
    },
    {
      "sampler": 0,
      "source": 1
    },
    {
      "sampler": 0,
      "source": 2
    },
    {
      "sampler": 0,
      "source": 3
    },
    {
      "sampler": 0,
      "source": 4
    },
    {
      "sampler": 0,
      "source": 5
    }
  ]
}
