{
  "accessors": [
    {
      "bufferView": 2,
      "componentType": 5126,
      "count": 4,
      "max": [
        0.5,
        0.5,
        0.0
      ],
      "min": [
        -0.5,
        -0.5,
        0.0
      ],
      "type": "VEC3"
    },
    {
      "bufferView": 2,
      "byteOffset": 48,
      "componentType": 5126,
      "count": 4,
      "max": [
        0.0,
        0.0,
        1.0
      ],
      "min": [
        0.0,
        0.0,
        1.0
      ],
      "type": "VEC3"
    },
    {
      "bufferView": 1,
      "componentType": 5126,
      "count": 4,
      "max": [
        1.0,
        1.0
      ],
      "min": [
        0.0,
        0.0
      ],
      "type": "VEC2"
    },
    {
      "bufferView": 0,
      "componentType": 5125,
      "count": 6,
      "type": "SCALAR"
    },
    {
      "bufferView": 2,
      "byteOffset": 96,
      "componentType": 5126,
      "count": 7256,
      "max": [
        0.48919788002967834,
        -0.06325770914554596,
        0.8885513544082642
      ],
      "min": [
        0.22149652242660522,
        -0.4044075012207031,
        0.4644489288330078
      ],
      "type": "VEC3"
    },
    {
      "bufferView": 2,
      "byteOffset": 87168,
      "componentType": 5126,
      "count": 7256,
      "max": [
        0.9965688586235046,
        0.9999477863311768,
        0.999510645866394
      ],
      "min": [
        -0.9984383583068848,
        -0.9992629289627075,
        -0.999510645866394
      ],
      "type": "VEC3"
    },
    {
      "bufferView": 3,
      "componentType": 5126,
      "count": 7256,
      "max": [
        0.9999886751174927,
        0.9998091459274292,
        0.9997949004173279,
        1.0
      ],
      "min": [
        -0.9999277591705322,
        -0.997622013092041,
        -0.9983860850334167,
        -1.0
      ],
      "type": "VEC4"
    },
    {
      "bufferView": 1,
      "byteOffset": 32,
      "componentType": 5126,
      "count": 7256,
      "max": [
        0.9994183778762817,
        0.9978218674659729
      ],
      "min": [
        0.0005815741023980081,
        0.0005815741023980081
      ],
      "type": "VEC2"
    },
    {
      "bufferView": 1,
      "byteOffset": 58080,
      "componentType": 5126,
      "count": 7256,
      "max": [
        0.9994183778762817,
        0.9978218674659729
      ],
      "min": [
        0.0005815741023980081,
        0.0005815741023980081
      ],
      "type": "VEC2"
    },
    {
      "bufferView": 1,
      "byteOffset": 116128,
      "componentType": 5126,
      "count": 7256,
      "max": [
        0.9994183778762817,
        0.9978218674659729
      ],
      "min": [
        0.0005815741023980081,
        0.0005815741023980081
      ],
      "type": "VEC2"
    },
    {
      "bufferView": 1,
      "byteOffset": 174176,
      "componentType": 5126,
      "count": 7256,
      "max": [
        0.9994183778762817,
        0.9978218674659729
      ],
      "min": [
        0.0005815741023980081,
        0.0005815741023980081
      ],
      "type": "VEC2"
    },
    {
      "bufferView": 0,
      "byteOffset": 24,
      "componentType": 5125,
      "count": 36600,
      "type": "SCALAR"
    },
    {
      "bufferView": 2,
      "byteOffset": 174240,
      "componentType": 5126,
      "count": 24329,
      "max": [
        0.3806370198726654,
        0.37301212549209595,
        1.2638719081878662
      ],
      "min": [
        -0.34359437227249146,
        -0.29225704073905945,
        -0.01926177181303501
      ],
      "type": "VEC3"
    },
    {
      "bufferView": 2,
      "byteOffset": 466188,
      "componentType": 5126,
      "count": 24329,
      "max": [
        0.9998749494552612,
        0.9999911785125732,
        0.9999599456787109
      ],
      "min": [
        -0.9999136924743652,
        -0.999957799911499,
        -0.9999918937683105
      ],
      "type": "VEC3"
    },
    {
      "bufferView": 3,
      "byteOffset": 116096,
      "componentType": 5126,
      "count": 24329,
      "max": [
        0.9998623132705688,
        0.999955952167511,
        0.9998843669891357,
        1.0
      ],
      "min": [
        -0.9999182820320129,
        -0.9999088048934937,
        -0.9999363422393799,
        -1.0
      ],
      "type": "VEC4"
    },
    {
      "bufferView": 1,
      "byteOffset": 232224,
      "componentType": 5126,
      "count": 24329,
      "max": [
        0.8734791874885559,
        0.9997366666793823
      ],
      "min": [
        0.00026333885034546256,
        0.00026333885034546256
      ],
      "type": "VEC2"
    },
    {
      "bufferView": 1,
      "byteOffset": 426856,
      "componentType": 5126,
      "count": 24329,
      "max": [
        0.8734791874885559,
        0.9997366666793823
      ],
      "min": [
        0.00026333885034546256,
        0.00026333885034546256
      ],
      "type": "VEC2"
    },
    {
      "bufferView": 1,
      "byteOffset": 621488,
      "componentType": 5126,
      "count": 24329,
      "max": [
        0.8734791874885559,
        0.9997366666793823
      ],
      "min": [
        0.00026333885034546256,
        0.00026333885034546256
      ],
      "type": "VEC2"
    },
    {
      "bufferView": 0,
      "byteOffset": 146424,
      "componentType": 5125,
      "count": 136530,
      "type": "SCALAR"
    },
    {
      "bufferView": 2,
      "byteOffset": 758136,
      "componentType": 5126,
      "count": 6,
      "max": [
        0.5318196415901184,
        -0.25664380192756653,
        1.3357373476028442
      ],
      "min": [
        0.36911582946777344,
        -0.4756433367729187,
        0.822039783000946
      ],
      "type": "VEC3"
    },
    {
      "bufferView": 2,
      "byteOffset": 758208,
      "componentType": 5126,
      "count": 6,
      "max": [
        -0.8009198904037476,
        -0.5987368822097778,
        -0.006447429768741131
      ],
      "min": [
        -0.8009198904037476,
        -0.5987368822097778,
        -0.006447429768741131
      ],
      "type": "VEC3"
    },
    {
      "bufferView": 1,
      "byteOffset": 816120,
      "componentType": 5126,
      "count": 6,
      "max": [
        0.9620143175125122,
        1.0
      ],
      "min": [
        0.04607207328081131,
        0.0
      ],
      "type": "VEC2"
    },
    {
      "bufferView": 0,
      "byteOffset": 692544,
      "componentType": 5125,
      "count": 12,
      "type": "SCALAR"
    }
  ],
  "asset": {
    "extras": {
      "author": "Nwilly_art (https://sketchfab.com/Nwilly_art)",
      "license": "CC-BY-4.0 (http://creativecommons.org/licenses/by/4.0/)",
      "source": "https://sketchfab.com/3d-models/alien-hominid-f66cadfce97d4b83b50f36e2a5357eee",
      "title": "Alien Hominid"
    },
    "generator": "Sketchfab-12.66.0",
    "version": "2.0"
  },
  "bufferViews": [
    {
      "buffer": 0,
      "byteLength": 692592,
      "name": "floatBufferViews",
      "target": 34963
    },
    {
      "buffer": 0,
      "byteLength": 816168,
      "byteOffset": 692592,
      "byteStride": 8,
      "name": "floatBufferViews",
      "target": 34962
    },
    {
      "buffer": 0,
      "byteLength": 758280,
      "byteOffset": 1508760,
      "byteStride": 12,
      "name": "floatBufferViews",
      "target": 34962
    },
    {
      "buffer": 0,
      "byteLength": 505360,
      "byteOffset": 2267040,
      "byteStride": 16,
      "name": "floatBufferViews",
      "target": 34962
    }
  ],
  "buffers": [
    {
      "byteLength": 2772400,
      "uri": "scene.bin"
    }
  ],
  "images": [
    {
      "uri": "textures/Untitled-1_baseColor.png"
    },
    {
      "uri": "textures/Untitled-1_emissive.png"
    },
    {
      "uri": "textures/Blaster_baseColor.png"
    },
    {
      "uri": "textures/Blaster_metallicRoughness.png"
    },
    {
      "uri": "textures/Blaster_emissive.png"
    },
    {
      "uri": "textures/Blaster_normal.png"
    },
    {
      "uri": "textures/AlienHominid_baseColor.png"
    },
    {
      "uri": "textures/AlienHominid_metallicRoughness.png"
    },
    {
      "uri": "textures/AlienHominid_normal.png"
    },
    {
      "uri": "textures/Screenshot_2021-04-19_194508_baseColor.png"
    },
    {
      "uri": "textures/Screenshot_2021-04-19_194508_emissive.png"
    }
  ],
  "materials": [
    {
      "alphaMode": "BLEND",
      "emissiveTexture": {
        "index": 1
      },
      "name": "Untitled-1",
      "pbrMetallicRoughness": {
        "baseColorTexture": {
          "index": 0
        },
        "metallicFactor": 0.0,
        "roughnessFactor": 0.7800243831251749
      }
    },
    {
      "doubleSided": true,
      "emissiveFactor": [
        1.0,
        1.0,
        1.0
      ],
      "emissiveTexture": {
        "index": 4
      },
      "name": "Blaster",
      "normalTexture": {
        "index": 5
      },
      "pbrMetallicRoughness": {
        "baseColorFactor": [
          0.8408301815661141,
          0.8408301815661141,
          0.8408301815661141,
          1.0
        ],
        "baseColorTexture": {
          "index": 2
        },
        "metallicRoughnessTexture": {
          "index": 3
        }
      }
    },
    {
      "doubleSided": true,
      "name": "AlienHominid",
      "normalTexture": {
        "index": 8
      },
      "pbrMetallicRoughness": {
        "baseColorTexture": {
          "index": 6
        },
        "metallicRoughnessTexture": {
          "index": 7
        }
      }
    },
    {
      "alphaMode": "BLEND",
      "doubleSided": true,
      "emissiveFactor": [
        0.3819364214571502,
        0.3819364214571502,
        0.3819364214571502
      ],
      "emissiveTexture": {
        "index": 10
      },
      "name": "Screenshot_2021-04-19_194508",
      "pbrMetallicRoughness": {
        "baseColorFactor": [
          1.0,
          1.0,
          1.0,
          0.38478669325906917
        ],
        "baseColorTexture": {
          "index": 9
        },
        "metallicFactor": 0.0,
        "roughnessFactor": 0.0
      }
    }
  ],
  "meshes": [
    {
      "name": "Untitled-1_Untitled-1_0",
      "primitives": [
        {
          "attributes": {
            "NORMAL": 1,
            "POSITION": 0,
            "TEXCOORD_0": 2
          },
          "indices": 3,
          "material": 0,
          "mode": 4
        }
      ]
    },
    {
      "name": "Untitled-1_Blaster_0",
      "primitives": [
        {
          "attributes": {
            "NORMAL": 5,
            "POSITION": 4,
            "TANGENT": 6,
            "TEXCOORD_0": 7,
            "TEXCOORD_1": 8,
            "TEXCOORD_2": 9,
            "TEXCOORD_3": 10
          },
          "indices": 11,
          "material": 1,
          "mode": 4
        }
      ]
    },
    {
      "name": "Untitled-1_AlienHominid_0",
      "primitives": [
        {
          "attributes": {
            "NORMAL": 13,
            "POSITION": 12,
            "TANGENT": 14,
            "TEXCOORD_0": 15,
            "TEXCOORD_1": 16,
            "TEXCOORD_2": 17
          },
          "indices": 18,
          "material": 2,
          "mode": 4
        }
      ]
    },
    {
      "name": "Untitled-1_Screenshot 2021-04-19 194508_0",
      "primitives": [
        {
          "attributes": {
            "NORMAL": 20,
            "POSITION": 19,
            "TEXCOORD_0": 21
          },
          "indices": 22,
          "material": 3,
          "mode": 4
        }
      ]
    }
  ],
  "nodes": [
    {
      "children": [
        1
      ],
      "matrix": [
        1.0,
        0.0,
        0.0,
        0.0,
        0.0,
        2.220446049250313e-16,
        -1.0,
        0.0,
        0.0,
        1.0,
        2.220446049250313e-16,
        0.0,
        0.0,
        0.0,
        0.0,
        1.0
      ],
      "name": "Sketchfab_model"
    },
    {
      "children": [
        2
      ],
      "matrix": [
        1.0,
        0.0,
        0.0,
        0.0,
        0.0,
        0.0,
        1.0,
        0.0,
        0.0,
        -1.0,
        0.0,
        0.0,
        0.0,
        0.0,
        0.0,
        1.0
      ],
      "name": "a298257180584569aaba36d3a1495176.fbx"
    },
    {
      "children": [
        3
      ],
      "name": "Object_2"
    },
    {
      "children": [
        4
      ],
      "name": "RootNode"
    },
    {
      "children": [
        5,
        6,
        7,
        8
      ],
      "name": "Untitled-1",
      "rotation": [
        -0.7071068286895752,
        0.0,
        0.0,
        0.7071067094802856
      ],
      "scale": [
        1512.82958984375,
        1512.82958984375,
        1512.82958984375
      ],
      "translation": [
        4.358011245727539,
        54.030914306640625,
        47.125946044921875
      ]
    },
    {
      "mesh": 0,
      "name": "Untitled-1_Untitled-1_0"
    },
    {
      "mesh": 1,
      "name": "Untitled-1_Blaster_0"
    },
    {
      "mesh": 2,
      "name": "Untitled-1_AlienHominid_0"
    },
    {
      "mesh": 3,
      "name": "Untitled-1_Screenshot 2021-04-19 194508_0"
    }
  ],
  "samplers": [
    {
      "magFilter": 9729,
      "minFilter": 9987,
      "wrapS": 10497,
      "wrapT": 10497
    }
  ],
  "scene": 0,
  "scenes": [
    {
      "name": "Sketchfab_Scene",
      "nodes": [
        0
      ]
    }
  ],
  "textures": [
    {
      "sampler": 0,
      "source": 0
    },
    {
      "sampler": 0,
      "source": 1
    },
    {
      "sampler": 0,
      "source": 2
    },
    {
      "sampler": 0,
      "source": 3
    },
    {
      "sampler": 0,
      "source": 4
    },
    {
      "sampler": 0,
      "source": 5
    },
    {
      "sampler": 0,
      "source": 6
    },
    {
      "sampler": 0,
      "source": 7
    },
    {
      "sampler": 0,
      "source": 8
    },
    {
      "sampler": 0,
      "source": 9
    },
    {
      "sampler": 0,
      "source": 10
    }
  ]
}
